<svg id="Capa_1" data-name="Capa 1" xmlns="http://www.w3.org/2000/svg" viewBox="0 0 1003.03 109.79"><defs><style>.cls-1{fill:#fafafa;}</style></defs><path class="cls-1" d="M98.38,233.78,54,196.42l44.34-37.3,10.26,10.39L76,196.29l32.63,27.1Z" transform="translate(-54.04 -136.62)"/><path class="cls-1" d="M133.5,232.27v-86h51.78V160H150v21.38h33.68v13.36H150v23.88h35.33v13.68Z" transform="translate(-54.04 -136.62)"/><path class="cls-1" d="M251.79,232.27V186.75c0-1.67,0-3.13-.14-4.38a13.46,13.46,0,0,0-.52-3.12,3.92,3.92,0,0,0-1.15-1.88,3.22,3.22,0,0,0-2.08-.62c-1.36,0-2.69.92-4,2.76a44.19,44.19,0,0,0-4.47,9.41v43.35H225.67V186.75c0-1.67,0-3.13-.13-4.38a14,14,0,0,0-.53-3.12,3.81,3.81,0,0,0-1.18-1.88,3.35,3.35,0,0,0-2.11-.62q-1.71,0-3.81,2.76a40.57,40.57,0,0,0-4.67,9.41v43.35H199.36V165.43h11.9l.27,9.74a39.59,39.59,0,0,1,2.89-5.07,16.66,16.66,0,0,1,3.09-3.45,10.47,10.47,0,0,1,3.52-1.94,13.93,13.93,0,0,1,4.24-.59q5.59,0,8.52,2.92a12.47,12.47,0,0,1,3.33,8.13,42.62,42.62,0,0,1,3.12-5.07,18.61,18.61,0,0,1,3.22-3.45,10.71,10.71,0,0,1,3.62-1.94,14.59,14.59,0,0,1,4.31-.59q7.31,0,10.79,5.1t3.49,15.09v48Z" transform="translate(-54.04 -136.62)"/><path class="cls-1" d="M300.27,177.93H281.39v-12.5h35.33v54.34H336v12.5h-56.9v-12.5h21.18ZM318,147.14a10.48,10.48,0,0,1-.79,4.08,10.07,10.07,0,0,1-2.2,3.33,10.59,10.59,0,0,1-3.32,2.23,10.39,10.39,0,0,1-4.15.82,10.59,10.59,0,0,1-7.53-3,10.07,10.07,0,0,1-2.2-3.33,10.7,10.7,0,0,1,2.2-11.51,10.29,10.29,0,0,1,3.35-2.27,10.6,10.6,0,0,1,4.18-.82A10.43,10.43,0,0,1,318,147.14Z" transform="translate(-54.04 -136.62)"/><path class="cls-1" d="M374.34,151.82H355.46v-12.5h35.33v80.45h19.28v12.5H353.16v-12.5h21.18Z" transform="translate(-54.04 -136.62)"/><path class="cls-1" d="M448.42,177.93H429.54v-12.5h35.32v54.34h19.28v12.5h-56.9v-12.5h21.18Zm17.76-30.79a10.48,10.48,0,0,1-.79,4.08,10.23,10.23,0,0,1-2.2,3.33,10.64,10.64,0,0,1-3.33,2.23,10.3,10.3,0,0,1-4.14.82,10.59,10.59,0,0,1-7.53-3,10.1,10.1,0,0,1-2.21-3.33,10.9,10.9,0,0,1,0-8.15,10.44,10.44,0,0,1,2.21-3.36,10.29,10.29,0,0,1,3.35-2.27,10.6,10.6,0,0,1,4.18-.82,10.3,10.3,0,0,1,4.14.82,10.42,10.42,0,0,1,3.33,2.27,10.58,10.58,0,0,1,2.2,3.36A10.47,10.47,0,0,1,466.18,147.14Z" transform="translate(-54.04 -136.62)"/><path class="cls-1" d="M542.82,232.27l-.39-8.75a47.11,47.11,0,0,1-4.41,4.11,27.07,27.07,0,0,1-11.09,5.4,31.8,31.8,0,0,1-7.14.75,24.69,24.69,0,0,1-9-1.51,18.09,18.09,0,0,1-6.51-4.21,17.54,17.54,0,0,1-4-6.51,25.12,25.12,0,0,1-1.35-8.42,19.24,19.24,0,0,1,2-8.75,18.48,18.48,0,0,1,6.12-6.91,32.18,32.18,0,0,1,10.26-4.54,56.56,56.56,0,0,1,14.44-1.64h8.75v-4a13.76,13.76,0,0,0-.73-4.63,8.28,8.28,0,0,0-2.33-3.52,11,11,0,0,0-4.18-2.24,21.57,21.57,0,0,0-6.31-.79,51,51,0,0,0-11.68,1.35,60.77,60.77,0,0,0-11.15,3.78V168.39a63.68,63.68,0,0,1,11.08-3.15A66.28,66.28,0,0,1,528.28,164,50.35,50.35,0,0,1,541,165.4a23,23,0,0,1,8.79,4.24,16.87,16.87,0,0,1,5.09,7.07,27.26,27.26,0,0,1,1.65,9.91v45.65Zm-2.3-29.54h-9.8a26.28,26.28,0,0,0-6.91.79,13.35,13.35,0,0,0-4.61,2.17,8.6,8.6,0,0,0-2.6,3.19,9.34,9.34,0,0,0-.82,3.85,7.57,7.57,0,0,0,2.63,6.22,11.1,11.1,0,0,0,7.17,2.14,12.54,12.54,0,0,0,7-2.44,50.27,50.27,0,0,0,8-7Z" transform="translate(-54.04 -136.62)"/><path class="cls-1" d="M614.85,232.27V188.72q0-11-8.15-11a11.68,11.68,0,0,0-7.8,3.29A57,57,0,0,0,591,190v42.3H575V165.43h13.88l.39,9.87a45.87,45.87,0,0,1,4.25-4.67,25.26,25.26,0,0,1,4.77-3.59,23.15,23.15,0,0,1,5.52-2.27,26.16,26.16,0,0,1,6.65-.78,22,22,0,0,1,8.94,1.67,17.34,17.34,0,0,1,6.39,4.74,20.28,20.28,0,0,1,3.84,7.37,33.52,33.52,0,0,1,1.29,9.64v44.86Z" transform="translate(-54.04 -136.62)"/><path class="cls-1" d="M709.26,198.33A44.49,44.49,0,0,1,707,212.77,31.86,31.86,0,0,1,700.57,224a28.42,28.42,0,0,1-10.33,7.24,35.72,35.72,0,0,1-13.94,2.56A38,38,0,0,1,663,231.61a25.59,25.59,0,0,1-9.93-6.48,28.56,28.56,0,0,1-6.25-10.79,47.46,47.46,0,0,1-2.17-15.09,43.9,43.9,0,0,1,2.26-14.48,31.52,31.52,0,0,1,6.52-11.11,28.93,28.93,0,0,1,10.36-7.14A35.78,35.78,0,0,1,677.61,164a37.77,37.77,0,0,1,13.36,2.2,26,26,0,0,1,9.93,6.54,28.79,28.79,0,0,1,6.22,10.76A47.08,47.08,0,0,1,709.26,198.33Zm-16.71.39q0-10.4-3.92-15.62t-11.54-5.23a14.61,14.61,0,0,0-7.17,1.64,13.84,13.84,0,0,0-4.87,4.51,20.08,20.08,0,0,0-2.8,6.67,36.13,36.13,0,0,0-.88,8.16q0,10.46,4.21,15.76a13.89,13.89,0,0,0,11.51,5.29,14.3,14.3,0,0,0,7-1.61,13,13,0,0,0,4.8-4.47,21.69,21.69,0,0,0,2.77-6.75A36.27,36.27,0,0,0,692.55,198.72Z" transform="translate(-54.04 -136.62)"/><path class="cls-1" d="M784.58,188.19a62.41,62.41,0,0,1-2.47,18.16,35.67,35.67,0,0,1-7.69,13.91A34.39,34.39,0,0,1,761,229.15a54.74,54.74,0,0,1-19.54,3.12H719.65v-86h25.46a54.54,54.54,0,0,1,17.27,2.47,29.85,29.85,0,0,1,12.33,7.59,32.4,32.4,0,0,1,7.4,13A63.27,63.27,0,0,1,784.58,188.19Zm-17.37,1.06a62.05,62.05,0,0,0-1.12-12.44,24.16,24.16,0,0,0-3.78-9.24,16.82,16.82,0,0,0-7.14-5.76,27.62,27.62,0,0,0-11.11-2h-8.23v58.88h7.11q11.91,0,18.09-7.11T767.21,189.25Z" transform="translate(-54.04 -136.62)"/><path class="cls-1" d="M855.43,193.72c0,1.1,0,2.52-.1,4.28s-.16,3.4-.29,4.93H811.09a20.64,20.64,0,0,0,1.35,7.76,15.24,15.24,0,0,0,3.82,5.63,16.48,16.48,0,0,0,5.92,3.45,23.45,23.45,0,0,0,7.66,1.19,78.34,78.34,0,0,0,10.43-.76,82.2,82.2,0,0,0,11.54-2.47v12.76q-2.56.73-5.59,1.32T840,232.86q-3.16.46-6.38.69c-2.15.16-4.24.23-6.25.23a40.34,40.34,0,0,1-13.69-2.17,27.06,27.06,0,0,1-10.26-6.41A28.08,28.08,0,0,1,797,214.71a42.94,42.94,0,0,1-2.23-14.48A46.54,46.54,0,0,1,797,185.4,34,34,0,0,1,803.33,174a27.83,27.83,0,0,1,9.9-7.37,31.55,31.55,0,0,1,13-2.59,33.38,33.38,0,0,1,12.57,2.2,25.16,25.16,0,0,1,9.14,6.15,26.23,26.23,0,0,1,5.59,9.41A36.12,36.12,0,0,1,855.43,193.72Zm-16.31-2.3a19.54,19.54,0,0,0-1-6.88,13.64,13.64,0,0,0-2.86-4.83,11.35,11.35,0,0,0-4.21-2.83,14.38,14.38,0,0,0-5.17-.92,13.19,13.19,0,0,0-9.93,4q-3.88,4-4.6,11.42Z" transform="translate(-54.04 -136.62)"/><path class="cls-1" d="M908.65,232.27H890.16l-26.51-66.84h17.9l13.88,37.9,4.14,12.23,4.08-11.71,14-38.42H934.9Z" transform="translate(-54.04 -136.62)"/><path class="cls-1" d="M956.54,246.41H941l45.92-107.09h15.66Z" transform="translate(-54.04 -136.62)"/><path class="cls-1" d="M1012.72,159.12l44.34,37.3-44.34,37.36-10.19-10.39,32.56-26.84-32.56-27Z" transform="translate(-54.04 -136.62)"/></svg>